# xmcd
#
# Track frame offsets:
#	150
#	12321
#	26228
#	34665
#
# Disc length: 625 seconds
#
# Revision: 1
# Processed by: cddbd v1.5.2PL0 Copyright (c) Steve Scherf et al.
# Submitted via: audiograbber 1.83.01
#
DISCID=29026f04
DTITLE=Volker Lechtenbrink - Der ganze Lechtenbrink [CD 7)
DYEAR=1900
DGENRE=Country
TTITLE0=Der Stuntman
TTITLE1=Liebling, was machst du für Sachen
TTITLE2=Ladykiller
TTITLE3=Leise rieselt der Schnee
EXTD=
EXTT0=
EXTT1=
EXTT2=
EXTT3=
PLAYORDER=
